<svg width="145" height="30" viewBox="0 0 145 30" fill="none" xmlns="http://www.w3.org/2000/svg">
<g clip-path="url(#clip0_2920_22774)">
<path d="M10 25C15.5228 25 20 20.5228 20 15C20 9.47715 15.5228 5 10 5C4.47715 5 0 9.47715 0 15C0 20.5228 4.47715 25 10 25Z" fill="#4E5E9C"/>
<path d="M10.0695 23.4491C14.6966 23.4491 18.4477 19.6981 18.4477 15.071C18.4477 10.4439 14.6966 6.69287 10.0695 6.69287C5.44242 6.69287 1.69141 10.4439 1.69141 15.071C1.69141 19.6981 5.44242 23.4491 10.0695 23.4491Z" fill="#475784"/>
<path d="M15.1203 7.07031H11.4059C11.3708 7.07031 11.3373 7.08422 11.3125 7.10898C11.2877 7.13374 11.2738 7.16733 11.2738 7.20234V8.86055C11.2744 8.86833 11.2773 8.87576 11.2822 8.88187C11.287 8.88799 11.2936 8.89252 11.301 8.89487C11.3084 8.89723 11.3164 8.8973 11.3239 8.89508C11.3314 8.89286 11.338 8.88845 11.343 8.88242C11.4406 8.7359 11.5828 8.62468 11.7485 8.56521C11.9142 8.50573 12.0947 8.50116 12.2632 8.55217C12.4318 8.60317 12.5794 8.70705 12.6843 8.84844C12.7893 8.98983 12.8459 9.16123 12.8459 9.3373C12.8459 9.51338 12.7893 9.68478 12.6843 9.82617C12.5794 9.96756 12.4318 10.0714 12.2632 10.1224C12.0947 10.1735 11.9142 10.1689 11.7485 10.1094C11.5828 10.0499 11.4406 9.93871 11.343 9.79219C11.3381 9.78602 11.3314 9.78148 11.3238 9.77918C11.3163 9.77687 11.3082 9.7769 11.3007 9.77927C11.2932 9.78164 11.2865 9.78623 11.2817 9.79244C11.2768 9.79865 11.2739 9.80619 11.2734 9.81406V11.4707C11.2737 11.5056 11.2878 11.5389 11.3127 11.5634C11.3375 11.588 11.371 11.6017 11.4059 11.6016H12.9918C12.8512 11.7031 12.7463 11.8466 12.6923 12.0114C12.6383 12.1762 12.638 12.3539 12.6913 12.519C12.7447 12.684 12.8489 12.8279 12.9892 12.93C13.1294 13.0321 13.2984 13.087 13.4719 13.087C13.6453 13.087 13.8143 13.0321 13.9546 12.93C14.0948 12.8279 14.1991 12.684 14.2524 12.519C14.3058 12.3539 14.3054 12.1762 14.2514 12.0114C14.1975 11.8466 14.0926 11.7031 13.952 11.6016H15.1207C15.3024 11.6016 15.4767 11.5294 15.6052 11.4009C15.7337 11.2724 15.8059 11.0981 15.8059 10.9164V7.75703C15.806 7.66691 15.7884 7.57763 15.754 7.49432C15.7196 7.41101 15.6692 7.3353 15.6055 7.27152C15.5418 7.20774 15.4662 7.15713 15.3829 7.12261C15.2997 7.08808 15.2104 7.07031 15.1203 7.07031Z" fill="#DA8AB2"/>
<path d="M13.3926 12.2656C13.3927 12.1359 13.4237 12.0081 13.4828 11.8927C13.542 11.7772 13.6276 11.6775 13.7328 11.6016H12.9933C12.8284 11.7233 12.7151 11.9023 12.6755 12.1034C12.636 12.3046 12.6732 12.5132 12.7799 12.6883C12.8865 12.8633 13.0548 12.9921 13.2516 13.0493C13.4484 13.1065 13.6595 13.0879 13.8433 12.9973C13.7079 12.9289 13.5941 12.8244 13.5145 12.6952C13.4349 12.566 13.3927 12.4173 13.3926 12.2656Z" fill="#C17FA3"/>
<path d="M12.0168 11.4704V10.1559C11.8839 10.1542 11.7534 10.1201 11.6366 10.0565C11.5199 9.99294 11.4204 9.90182 11.3469 9.79108C11.342 9.78491 11.3353 9.78038 11.3277 9.77807C11.3202 9.77577 11.3121 9.7758 11.3046 9.77817C11.2971 9.78054 11.2904 9.78513 11.2856 9.79134C11.2807 9.79755 11.2778 9.80508 11.2773 9.81296V11.4696C11.2774 11.5044 11.2913 11.5378 11.3159 11.5624C11.3405 11.5871 11.3738 11.601 11.4086 11.6012H12.1508C12.1334 11.6015 12.1161 11.5983 12.0999 11.5919C12.0838 11.5854 12.069 11.5758 12.0566 11.5637C12.0441 11.5515 12.0342 11.537 12.0274 11.521C12.0205 11.505 12.0169 11.4878 12.0168 11.4704Z" fill="#C17FA3"/>
<path d="M12.1516 7.07032H11.4094C11.3744 7.07032 11.3408 7.08423 11.316 7.10899C11.2913 7.13375 11.2773 7.16734 11.2773 7.20235V8.86056C11.2779 8.86834 11.2808 8.87577 11.2857 8.88188C11.2905 8.888 11.2971 8.89253 11.3045 8.89488C11.312 8.89724 11.3199 8.89731 11.3274 8.89509C11.3349 8.89287 11.3415 8.88846 11.3465 8.88243C11.4201 8.77138 11.5197 8.67995 11.6367 8.61604C11.7536 8.55213 11.8843 8.51767 12.0176 8.51563V7.20352C12.0175 7.18594 12.0209 7.1685 12.0276 7.15225C12.0343 7.13599 12.0442 7.12122 12.0566 7.10882C12.0691 7.09642 12.0839 7.08663 12.1002 7.08002C12.1165 7.07341 12.134 7.07011 12.1516 7.07032Z" fill="#C17FA3"/>
<path d="M15.4873 14.7778C15.4881 14.4458 15.4217 14.1171 15.292 13.8114C15.2839 13.792 15.2693 13.7761 15.2508 13.7662C15.2323 13.7563 15.2109 13.7531 15.1903 13.7572C15.1697 13.7613 15.1511 13.7724 15.1377 13.7886C15.1244 13.8048 15.1171 13.8252 15.117 13.8462V14.3856C15.117 14.5674 15.0448 14.7416 14.9163 14.8701C14.7878 14.9986 14.6135 15.0708 14.4318 15.0708H13.2619C13.3671 15.1467 13.4527 15.2465 13.5119 15.3619C13.571 15.4773 13.602 15.6052 13.6021 15.7349C13.6022 15.7669 13.6002 15.7988 13.5963 15.8306C13.5804 15.9661 13.5311 16.0955 13.4526 16.2071C13.3741 16.3188 13.2691 16.4091 13.1469 16.4698C13.0247 16.5306 12.8894 16.56 12.753 16.5552C12.6166 16.5505 12.4836 16.5118 12.366 16.4427C12.2483 16.3736 12.1498 16.2762 12.0793 16.1594C12.0087 16.0426 11.9685 15.91 11.9621 15.7737C11.9557 15.6375 11.9834 15.5017 12.0427 15.3788C12.102 15.256 12.1911 15.1498 12.3017 15.07H10.7166C10.6816 15.07 10.648 15.0561 10.6232 15.0313C10.5985 15.0066 10.5846 14.973 10.5846 14.938V13.281C10.5851 13.2731 10.5879 13.2655 10.5928 13.2593C10.5977 13.2531 10.6043 13.2485 10.6118 13.2462C10.6193 13.2438 10.6274 13.2438 10.635 13.2461C10.6425 13.2484 10.6492 13.2529 10.6541 13.2591C10.7477 13.4001 10.8826 13.5088 11.0404 13.5701C11.1981 13.6315 11.371 13.6425 11.5353 13.6017C11.6996 13.5609 11.8472 13.4703 11.958 13.3423C12.0687 13.2143 12.1372 13.0552 12.1539 12.8868C12.1707 12.7183 12.1349 12.5488 12.0515 12.4015C11.9682 12.2542 11.8413 12.1363 11.6882 12.0639C11.5352 11.9916 11.3635 11.9684 11.1968 11.9974C11.03 12.0265 10.8764 12.1064 10.7568 12.2263C10.7185 12.2643 10.6842 12.3062 10.6545 12.3513C10.6496 12.3576 10.6429 12.3623 10.6353 12.3646C10.6277 12.367 10.6195 12.367 10.6119 12.3647C10.6043 12.3623 10.5976 12.3576 10.5927 12.3513C10.5878 12.345 10.585 12.3374 10.5846 12.3294V10.6716C10.5838 10.6488 10.5754 10.627 10.5608 10.6095C10.5461 10.5921 10.526 10.5801 10.5037 10.5755C10.483 10.5716 10.4623 10.5685 10.4416 10.5649L10.3943 10.5583L10.3455 10.5524C10.326 10.5501 10.3064 10.5485 10.2869 10.547C10.2674 10.5454 10.2576 10.5446 10.2428 10.5438C10.2279 10.5431 10.2139 10.5419 10.1994 10.5415C10.1693 10.5415 10.1389 10.5396 10.1084 10.5396C10.0693 10.5396 10.0346 10.5396 9.99823 10.5423C9.98065 10.5423 9.96346 10.5442 9.94628 10.5458C9.92909 10.5474 9.90721 10.5485 9.88925 10.5505L9.84823 10.5548C9.81776 10.5583 9.7869 10.5626 9.75682 10.5677L9.71776 10.5743L9.6787 10.5821C9.66268 10.5853 9.64667 10.5884 9.63104 10.5923L9.60682 10.5978C9.59276 10.6009 9.57909 10.604 9.56542 10.6079C9.5425 10.6134 9.51945 10.6196 9.49628 10.6267C9.48221 10.6306 9.46776 10.6349 9.4537 10.6396C9.42635 10.6476 9.3994 10.6566 9.37284 10.6665L9.33651 10.6798L9.30487 10.6919L9.27518 10.704L9.22714 10.7243L9.17987 10.7458C9.16385 10.7532 9.14823 10.7606 9.133 10.7685C9.11776 10.7763 9.10643 10.7813 9.09393 10.7884C9.04003 10.8165 8.98794 10.8467 8.93768 10.879C8.92831 10.8849 8.91893 10.8907 8.90995 10.897C8.90096 10.9032 8.88104 10.9157 8.86698 10.9255L8.82479 10.9552C8.79432 10.9771 8.76425 11.0001 8.73495 11.0235C8.70565 11.047 8.68456 11.0653 8.65956 11.0868C8.63456 11.1083 8.60839 11.1325 8.58378 11.1567C8.57284 11.1681 8.56151 11.179 8.55018 11.1899C8.54159 11.1798 8.53339 11.1696 8.52401 11.1599C8.50135 11.1333 8.47831 11.1075 8.45409 11.0817L8.4201 11.0478C8.36925 10.9974 8.31523 10.9503 8.25839 10.9067C8.24862 10.8989 8.23846 10.8915 8.22831 10.8841C8.16613 10.8379 8.10087 10.796 8.033 10.7587C8.02245 10.7524 8.01112 10.7466 8.00018 10.7407C7.93767 10.708 7.87323 10.679 7.80721 10.654C7.79471 10.6489 7.7826 10.6446 7.7701 10.6403L7.73456 10.6282L7.70018 10.6173L7.66893 10.6079L7.62987 10.597C7.56946 10.5805 7.50816 10.5675 7.44628 10.5579L7.40721 10.5524L7.37518 10.5485L7.34354 10.5454H7.32831C7.31385 10.5454 7.2994 10.5431 7.28495 10.5423C7.2705 10.5415 7.24979 10.5403 7.23221 10.5399H7.18065C6.78234 10.5401 6.39568 10.6743 6.08302 10.9211C5.77035 11.1679 5.5499 11.5127 5.45721 11.9001C5.26725 11.8013 5.05506 11.7532 4.84107 11.7602C4.62709 11.7673 4.41853 11.8294 4.2355 11.9404C4.05247 12.0515 3.90114 12.2079 3.79609 12.3944C3.69104 12.581 3.63581 12.7915 3.63573 13.0056C3.63573 13.0251 3.63573 13.0446 3.63573 13.0642C3.63573 13.0739 3.63573 13.0837 3.63573 13.0931L3.63807 13.122C3.14451 13.2897 2.72646 13.6272 2.45829 14.0742C2.19012 14.5212 2.08922 15.0489 2.17354 15.5634C2.25785 16.0778 2.52192 16.5456 2.91877 16.8837C3.31561 17.2217 3.81951 17.408 4.34081 17.4095C4.35721 17.4095 4.37362 17.4095 4.39003 17.4095C4.40643 17.4095 4.42284 17.4095 4.43885 17.4095C4.44628 17.4353 4.45409 17.4603 4.46229 17.4856C4.46229 17.4919 4.4662 17.4981 4.46854 17.5044C4.47479 17.5231 4.48143 17.5435 4.48807 17.561C4.54333 17.7126 4.61333 17.8583 4.69706 17.9962C4.71385 18.0239 4.73143 18.0517 4.7494 18.0786C4.76307 18.0993 4.77675 18.1177 4.79081 18.1392C4.80487 18.1606 4.81932 18.1782 4.83378 18.1985C4.8537 18.2247 4.87284 18.2501 4.89393 18.2767C4.9037 18.2892 4.91425 18.3013 4.9244 18.3134C4.9451 18.338 4.9662 18.3622 4.98768 18.3853C5.00917 18.4083 5.03339 18.4341 5.05721 18.4575C5.11293 18.514 5.17146 18.5676 5.2326 18.6181C5.24628 18.6298 5.26034 18.6411 5.27479 18.6524C5.32596 18.6915 5.37831 18.7306 5.43104 18.7677C5.458 18.786 5.48534 18.8036 5.51346 18.8208L5.54901 18.8423C5.65055 18.9025 5.7563 18.9554 5.86542 19.0005C5.88026 19.0067 5.89471 19.0126 5.90956 19.0181C5.94042 19.0302 5.97167 19.0415 6.00292 19.0524L6.05018 19.0681L6.0912 19.081C6.1576 19.1009 6.22518 19.12 6.29393 19.1329L6.34237 19.1423C6.35917 19.1458 6.37596 19.1485 6.39237 19.1513C6.41581 19.1552 6.43925 19.1591 6.46268 19.1622L6.49354 19.1661C6.51698 19.1692 6.54081 19.172 6.56464 19.1739C6.58104 19.1759 6.59745 19.1771 6.61346 19.1782C6.62948 19.1794 6.63768 19.1802 6.64979 19.1806C6.6619 19.181 6.683 19.1829 6.6994 19.1833H6.74198H6.80409C6.94525 19.1832 7.08614 19.1709 7.22518 19.1466C7.22948 19.1649 7.23378 19.1833 7.23846 19.2013C7.24315 19.2192 7.24823 19.2376 7.25331 19.2556C7.26346 19.2915 7.27479 19.3271 7.2869 19.3622L7.30565 19.4142C7.3119 19.4317 7.31893 19.4489 7.32596 19.4661C7.333 19.4833 7.34003 19.5005 7.34745 19.5173C7.36073 19.5481 7.37479 19.5782 7.38964 19.6079C7.3994 19.6274 7.40956 19.647 7.4201 19.6665C7.44081 19.7056 7.46268 19.7446 7.48573 19.781C7.49706 19.7997 7.50878 19.8181 7.52089 19.8364C7.56927 19.9097 7.62224 19.9799 7.67948 20.0466C7.71854 20.0907 7.7576 20.1337 7.79667 20.1747C7.8205 20.1985 7.8451 20.2216 7.8701 20.2442L7.90917 20.2774C7.9287 20.2942 7.94823 20.3103 7.96776 20.3263L7.99471 20.3474L8.00175 20.3528C8.03417 20.3778 8.06737 20.4017 8.10135 20.4247C8.13534 20.4478 8.16425 20.4661 8.19628 20.4853C8.21073 20.4942 8.22518 20.5028 8.24003 20.511C8.25487 20.5192 8.26073 20.5228 8.27128 20.5286C8.29042 20.5392 8.31034 20.5493 8.32987 20.5595C8.3494 20.5696 8.35995 20.5751 8.37557 20.5821L8.408 20.5974L8.44706 20.6153L8.48612 20.6313C8.57755 20.6689 8.67154 20.6998 8.76737 20.7239C8.77948 20.7274 8.79198 20.7302 8.80448 20.7333C8.82453 20.738 8.84445 20.7423 8.86425 20.7462L8.91542 20.756L8.96776 20.7645L9.0205 20.772C9.0382 20.7743 9.05578 20.7763 9.07323 20.7778C9.10995 20.7817 9.14706 20.7845 9.18417 20.786C9.20096 20.786 9.21776 20.786 9.23456 20.788H9.28885C9.33846 20.788 9.38729 20.786 9.43612 20.7825C9.61264 20.7707 9.78695 20.7366 9.95487 20.681L9.99628 20.6669L10.033 20.6536C10.0861 20.6337 10.1389 20.6114 10.1892 20.5872L10.2033 20.5806C10.2424 20.561 10.308 20.5271 10.3467 20.5048C10.3607 20.497 10.3744 20.4888 10.3881 20.4802L10.4357 20.4501C10.4506 20.4411 10.4646 20.4313 10.4787 20.4216C10.4928 20.4118 10.5072 20.4024 10.5209 20.3923C10.5346 20.3821 10.5525 20.3692 10.5678 20.3575C10.583 20.3458 10.6014 20.3321 10.6178 20.3185C10.6342 20.3048 10.6467 20.295 10.6607 20.2829C10.6748 20.2708 10.6892 20.2583 10.7029 20.2458L10.7443 20.2067L10.7834 20.1677C10.799 20.1521 10.8142 20.1364 10.8291 20.1204C10.8439 20.1044 10.8607 20.0864 10.8756 20.0692L10.9099 20.0743C11.3291 21.0462 12.0978 22.2263 13.5166 23.013C13.6829 23.1056 13.8758 23.1387 14.0635 23.1067C14.2552 23.0733 14.429 22.9733 14.5542 22.8243C14.6795 22.6753 14.7482 22.4869 14.7482 22.2923C14.7482 22.1452 14.7084 22.0009 14.633 21.8747C14.2314 21.197 13.8166 20.1317 13.7346 18.5646C13.8498 18.431 13.9446 18.2811 14.0158 18.1196C14.2644 18.1497 14.5162 18.1041 14.7385 17.9889C14.9608 17.8737 15.1432 17.6942 15.2619 17.4737C15.3806 17.2533 15.4302 17.0023 15.4042 16.7533C15.3781 16.5043 15.2776 16.2689 15.1158 16.0778C15.3589 15.6878 15.4877 15.2374 15.4873 14.7778Z" fill="#DA8AB2"/>
<path d="M10.6126 19.146C10.6795 19.4355 10.8065 19.7076 10.9853 19.9449C10.7425 20.2669 10.4129 20.5129 10.0351 20.6541C9.65739 20.7952 9.2472 20.8257 8.85275 20.7418C8.4583 20.6579 8.09598 20.4632 7.80836 20.1805C7.52074 19.8978 7.31977 19.539 7.22904 19.146C7.08996 19.17 6.94909 19.1822 6.80795 19.1824C6.27451 19.1822 5.75548 19.0092 5.3287 18.6891C4.90191 18.3691 4.59036 17.9194 4.44076 17.4074C4.40795 17.4074 4.37553 17.4101 4.34271 17.4101C3.82081 17.41 3.31589 17.2246 2.91796 16.8869C2.52003 16.5492 2.25496 16.0812 2.17 15.5662C2.08505 15.0513 2.18573 14.5229 2.45409 14.0753C2.72246 13.6277 3.14107 13.2899 3.63529 13.1222C3.63178 13.0831 3.62982 13.0441 3.62982 13.005C3.6299 12.7909 3.68513 12.5804 3.79018 12.3939C3.89523 12.2073 4.04656 12.051 4.2296 11.9399C4.41263 11.8288 4.62118 11.7667 4.83517 11.7597C5.04915 11.7526 5.26135 11.8008 5.45131 11.8995C5.52806 11.5784 5.69303 11.2851 5.92759 11.0527C6.16215 10.8203 6.45699 10.6581 6.77883 10.5843C7.10068 10.5106 7.43673 10.5282 7.74909 10.6353C8.06144 10.7423 8.33767 10.9345 8.54662 11.1902C8.75107 10.9838 8.99446 10.82 9.26267 10.7083C9.53089 10.5967 9.8186 10.5394 10.1091 10.5398C10.1883 10.5397 10.2675 10.544 10.3462 10.5527C9.98704 10.5962 9.64977 10.7486 9.37968 10.9893C9.1096 11.2301 8.91963 11.5477 8.83529 11.8995C8.64533 11.8008 8.43314 11.7526 8.21915 11.7597C8.00517 11.7667 7.79661 11.8288 7.61358 11.9399C7.43055 12.051 7.27922 12.2073 7.17417 12.3939C7.06912 12.5804 7.01389 12.7909 7.01381 13.005C7.01381 13.0441 7.01576 13.0831 7.01928 13.1222C6.52508 13.2899 6.10649 13.6276 5.83813 14.0752C5.56976 14.5228 5.46905 15.0511 5.55396 15.566C5.63886 16.081 5.90386 16.549 6.30172 16.8867C6.69958 17.2245 7.20444 17.4099 7.72631 17.4101C7.75912 17.4101 7.79193 17.4101 7.82475 17.4074C7.97435 17.9194 8.2859 18.3691 8.71268 18.6891C9.13947 19.0092 9.65849 19.1822 10.1919 19.1824C10.3329 19.1821 10.4737 19.17 10.6126 19.146Z" fill="#C17FA3"/>
<path d="M11.4916 12.8884C11.2151 12.8273 10.9275 12.8383 10.6565 12.9204C10.3855 13.0025 10.1402 13.1529 9.94408 13.3571C9.74796 13.5614 9.60765 13.8126 9.53661 14.0867C9.46557 14.3608 9.4662 14.6486 9.53843 14.9223C9.54599 14.9495 9.54449 14.9784 9.53414 15.0047C9.5238 15.0309 9.50518 15.0531 9.4811 15.0678C9.45703 15.0825 9.42882 15.0889 9.40075 15.0862C9.37267 15.0834 9.34627 15.0716 9.32554 15.0524L9.31343 15.0411C8.65249 14.4063 8.64468 13.3223 9.29546 12.6762C9.46374 12.5094 9.66599 12.3809 9.88843 12.2992C10.1109 12.2176 10.3483 12.1848 10.5845 12.2032V12.329C10.585 12.3369 10.5879 12.3444 10.5928 12.3506C10.5976 12.3568 10.6043 12.3614 10.6118 12.3638C10.6193 12.3661 10.6274 12.3662 10.6349 12.3639C10.6425 12.3616 10.6491 12.357 10.6541 12.3509C10.684 12.3059 10.7185 12.264 10.7568 12.2259C11.0753 12.2836 11.3696 12.4342 11.6029 12.6587L11.6146 12.67C11.6347 12.6901 11.6477 12.7162 11.6516 12.7444C11.6554 12.7725 11.65 12.8012 11.636 12.8259C11.6221 12.8507 11.6004 12.8702 11.5743 12.8815C11.5482 12.8927 11.5191 12.8952 11.4916 12.8884Z" fill="#C17FA3"/>
<path d="M13.9664 16.5693C13.7438 16.817 13.4332 16.9678 13.101 16.9897C12.7687 17.0116 12.441 16.9028 12.1879 16.6865L12.1781 16.6783C12.1618 16.6638 12.1507 16.6444 12.1465 16.623C12.1422 16.6016 12.145 16.5794 12.1545 16.5597C12.164 16.5401 12.1796 16.5241 12.1991 16.5141C12.2185 16.5041 12.2406 16.5008 12.2621 16.5045C12.3532 16.519 12.4457 16.5236 12.5379 16.5182C12.6528 16.5539 12.7743 16.5639 12.8935 16.5475C13.0128 16.531 13.127 16.4885 13.228 16.423C13.329 16.3574 13.4143 16.2705 13.478 16.1682C13.5416 16.066 13.5819 15.951 13.5961 15.8314C13.7176 15.5978 13.7634 15.3321 13.7269 15.0713H14.1152C14.25 15.3053 14.3081 15.5755 14.2814 15.8442C14.2547 16.1129 14.1445 16.3665 13.9664 16.5693Z" fill="#C17FA3"/>
</g>
<path d="M37.18 10.3V13.8H41.88V16.02H37.18V19.72H42.48V22H34.38V8.02H42.48V10.3H37.18ZM53.5445 13.68V16.04H45.0645V13.68H53.5445ZM59.4847 19.78H64.0847V22H56.6847V8.04H59.4847V19.78ZM76.1644 16.22C76.1644 16.62 76.1377 16.98 76.0844 17.3H67.9844C68.051 18.1 68.331 18.7267 68.8244 19.18C69.3177 19.6333 69.9244 19.86 70.6444 19.86C71.6844 19.86 72.4244 19.4133 72.8644 18.52H75.8844C75.5644 19.5867 74.951 20.4667 74.0444 21.16C73.1377 21.84 72.0244 22.18 70.7044 22.18C69.6377 22.18 68.6777 21.9467 67.8244 21.48C66.9844 21 66.3244 20.3267 65.8444 19.46C65.3777 18.5933 65.1444 17.5933 65.1444 16.46C65.1444 15.3133 65.3777 14.3067 65.8444 13.44C66.311 12.5733 66.9644 11.9067 67.8044 11.44C68.6444 10.9733 69.611 10.74 70.7044 10.74C71.7577 10.74 72.6977 10.9667 73.5244 11.42C74.3644 11.8733 75.011 12.52 75.4644 13.36C75.931 14.1867 76.1644 15.14 76.1644 16.22ZM73.2644 15.42C73.251 14.7 72.991 14.1267 72.4844 13.7C71.9777 13.26 71.3577 13.04 70.6244 13.04C69.931 13.04 69.3444 13.2533 68.8644 13.68C68.3977 14.0933 68.111 14.6733 68.0044 15.42H73.2644ZM77.4881 16.42C77.4881 15.3 77.7081 14.3067 78.1481 13.44C78.6015 12.5733 79.2081 11.9067 79.9681 11.44C80.7415 10.9733 81.6015 10.74 82.5481 10.74C83.3748 10.74 84.0948 10.9067 84.7081 11.24C85.3348 11.5733 85.8348 11.9933 86.2081 12.5V10.92H89.0281V22H86.2081V20.38C85.8481 20.9 85.3481 21.3333 84.7081 21.68C84.0815 22.0133 83.3548 22.18 82.5281 22.18C81.5948 22.18 80.7415 21.94 79.9681 21.46C79.2081 20.98 78.6015 20.3067 78.1481 19.44C77.7081 18.56 77.4881 17.5533 77.4881 16.42ZM86.2081 16.46C86.2081 15.78 86.0748 15.2 85.8081 14.72C85.5415 14.2267 85.1815 13.8533 84.7281 13.6C84.2748 13.3333 83.7881 13.2 83.2681 13.2C82.7481 13.2 82.2681 13.3267 81.8281 13.58C81.3881 13.8333 81.0281 14.2067 80.7481 14.7C80.4815 15.18 80.3481 15.7533 80.3481 16.42C80.3481 17.0867 80.4815 17.6733 80.7481 18.18C81.0281 18.6733 81.3881 19.0533 81.8281 19.32C82.2815 19.5867 82.7615 19.72 83.2681 19.72C83.7881 19.72 84.2748 19.5933 84.7281 19.34C85.1815 19.0733 85.5415 18.7 85.8081 18.22C86.0748 17.7267 86.2081 17.14 86.2081 16.46ZM94.5628 12.64C94.9228 12.0533 95.3895 11.5933 95.9628 11.26C96.5495 10.9267 97.2161 10.76 97.9628 10.76V13.7H97.2228C96.3428 13.7 95.6761 13.9067 95.2228 14.32C94.7828 14.7333 94.5628 15.4533 94.5628 16.48V22H91.7628V10.92H94.5628V12.64ZM105.989 10.76C107.309 10.76 108.375 11.18 109.189 12.02C110.002 12.8467 110.409 14.0067 110.409 15.5V22H107.609V15.88C107.609 15 107.389 14.3267 106.949 13.86C106.509 13.38 105.909 13.14 105.149 13.14C104.375 13.14 103.762 13.38 103.309 13.86C102.869 14.3267 102.649 15 102.649 15.88V22H99.8488V10.92H102.649V12.3C103.022 11.82 103.495 11.4467 104.069 11.18C104.655 10.9 105.295 10.76 105.989 10.76ZM114.491 9.6C113.998 9.6 113.585 9.44667 113.251 9.14C112.931 8.82 112.771 8.42667 112.771 7.96C112.771 7.49333 112.931 7.10667 113.251 6.8C113.585 6.48 113.998 6.32 114.491 6.32C114.985 6.32 115.391 6.48 115.711 6.8C116.045 7.10667 116.211 7.49333 116.211 7.96C116.211 8.42667 116.045 8.82 115.711 9.14C115.391 9.44667 114.985 9.6 114.491 9.6ZM115.871 10.92V22H113.071V10.92H115.871ZM124.778 10.76C126.098 10.76 127.164 11.18 127.978 12.02C128.791 12.8467 129.198 14.0067 129.198 15.5V22H126.398V15.88C126.398 15 126.178 14.3267 125.738 13.86C125.298 13.38 124.698 13.14 123.938 13.14C123.164 13.14 122.551 13.38 122.098 13.86C121.658 14.3267 121.438 15 121.438 15.88V22H118.638V10.92H121.438V12.3C121.811 11.82 122.284 11.4467 122.858 11.18C123.444 10.9 124.084 10.76 124.778 10.76ZM136.2 10.74C137.027 10.74 137.754 10.9067 138.38 11.24C139.007 11.56 139.5 11.98 139.86 12.5V10.92H142.68V22.08C142.68 23.1067 142.474 24.02 142.06 24.82C141.647 25.6333 141.027 26.2733 140.2 26.74C139.374 27.22 138.374 27.46 137.2 27.46C135.627 27.46 134.334 27.0933 133.32 26.36C132.32 25.6267 131.754 24.6267 131.62 23.36H134.4C134.547 23.8667 134.86 24.2667 135.34 24.56C135.834 24.8667 136.427 25.02 137.12 25.02C137.934 25.02 138.594 24.7733 139.1 24.28C139.607 23.8 139.86 23.0667 139.86 22.08V20.36C139.5 20.88 139 21.3133 138.36 21.66C137.734 22.0067 137.014 22.18 136.2 22.18C135.267 22.18 134.414 21.94 133.64 21.46C132.867 20.98 132.254 20.3067 131.8 19.44C131.36 18.56 131.14 17.5533 131.14 16.42C131.14 15.3 131.36 14.3067 131.8 13.44C132.254 12.5733 132.86 11.9067 133.62 11.44C134.394 10.9733 135.254 10.74 136.2 10.74ZM139.86 16.46C139.86 15.78 139.727 15.2 139.46 14.72C139.194 14.2267 138.834 13.8533 138.38 13.6C137.927 13.3333 137.44 13.2 136.92 13.2C136.4 13.2 135.92 13.3267 135.48 13.58C135.04 13.8333 134.68 14.2067 134.4 14.7C134.134 15.18 134 15.7533 134 16.42C134 17.0867 134.134 17.6733 134.4 18.18C134.68 18.6733 135.04 19.0533 135.48 19.32C135.934 19.5867 136.414 19.72 136.92 19.72C137.44 19.72 137.927 19.5933 138.38 19.34C138.834 19.0733 139.194 18.7 139.46 18.22C139.727 17.7267 139.86 17.14 139.86 16.46Z" fill="#110D59"/>
<defs>
<clipPath id="clip0_2920_22774">
<rect width="20" height="20" fill="white" transform="translate(0 5)"/>
</clipPath>
</defs>
</svg>
