<svg width="20" height="20" viewBox="0 0 20 20" fill="none" xmlns="http://www.w3.org/2000/svg">
<path fill-rule="evenodd" clip-rule="evenodd" d="M13.582 12.9479C13.6494 14.4747 12.4172 15.7657 10.8301 15.8306C10.7132 15.8355 5.01402 15.824 5.01402 15.824C3.43456 15.9439 2.05222 14.8089 1.92764 13.2879C1.91825 13.1746 1.92081 7.05951 1.92081 7.05951C1.85084 5.53114 3.0813 4.23684 4.66929 4.1695C4.7879 4.16375 10.4794 4.17442 10.4794 4.17442C12.0665 4.05616 13.4531 5.19936 13.576 6.72772C13.5846 6.83777 13.582 12.9479 13.582 12.9479Z" stroke="#7E7BB3" stroke-width="1.5" stroke-linecap="round" stroke-linejoin="round"/>
<path d="M13.5859 8.31523L16.3301 6.0694C17.0101 5.51273 18.0301 5.99773 18.0293 6.87523L18.0193 12.9994C18.0184 13.8769 16.9976 14.3577 16.3193 13.8011L13.5859 11.5552" stroke="#7E7BB3" stroke-width="1.5" stroke-linecap="round" stroke-linejoin="round"/>
</svg>
